<svg width="147" height="147" viewBox="0 0 147 147" fill="none" xmlns="http://www.w3.org/2000/svg">
<ellipse cx="73.4062" cy="73.5" rx="73.4062" ry="73.5" fill="white"/>
<path fill-rule="evenodd" clip-rule="evenodd" d="M0 73.5C0 114.093 32.8652 147 73.4062 147C83.7593 147 93.6118 144.854 102.544 140.982C98.7355 140.576 95.2167 140.028 91.9878 139.338C84.2075 137.66 77.0756 135.105 70.592 131.673C57.091 124.504 47.5944 114.018 42.1025 100.214H17.6175L25.0545 82.5962H37.7547C37.297 78.9354 37.0682 75.4653 37.0682 72.1859C37.0682 68.8302 37.1826 65.8177 37.4114 63.1483H17.6175L25.0545 45.6453H40.9583C45.9926 30.8497 55.3366 19.4479 68.9902 11.4399C76.0196 7.28116 83.6726 4.25628 91.9494 2.36527C86.0262 0.821592 79.812 0 73.4062 0C32.8652 0 0 32.9074 0 73.5ZM116.716 14.1497C94.1563 17.0465 71.7082 26.4087 63.3591 45.6453H131.347L123.795 63.1483H59.036C58.7309 65.7414 58.5784 68.9064 58.5784 72.6435C58.5784 76.3805 58.8835 79.6981 59.4937 82.5962H114.871L107.32 100.214H66.4731C75.7463 115.521 99.3947 125.462 124.15 126.61C138.115 113.229 146.812 94.3816 146.812 73.5C146.812 49.1252 134.962 27.5215 116.716 14.1497Z" fill="url(#paint0_linear)"/>
<defs>
<linearGradient id="paint0_linear" x1="39.3516" y1="77.4373" x2="110.754" y2="13.0302" gradientUnits="userSpaceOnUse">
<stop stop-color="#15BCFF"/>
<stop offset="0.485357" stop-color="#3073EC"/>
<stop offset="1" stop-color="#B030EC"/>
</linearGradient>
</defs>
</svg>
