<?xml version="1.0" encoding="UTF-8"?>
<svg width="1200px" height="386px" viewBox="0 0 1200 386" version="1.1" xmlns="http://www.w3.org/2000/svg" xmlns:xlink="http://www.w3.org/1999/xlink">
    <!-- Generator: Sketch 52.2 (67145) - http://www.bohemiancoding.com/sketch -->
    <title>horizontal logo + text [1200]</title>
    <desc>Created with Sketch.</desc>
    <g id="Page-1" stroke="none" stroke-width="1" fill="none" fill-rule="evenodd">
        <g id="horizontal-logo-+-text-[1200]">
            <path d="M192.5,386 C86.1858594,386 0,299.590281 0,193 C0,86.4097187 86.1858594,0 192.5,0 C298.814141,0 385,86.4097187 385,193 C385,299.590281 298.814141,386 192.5,386 Z" id="Combined-Shape" fill="#2468E4"></path>
            <g id="Group-8" transform="translate(108.000000, 84.000000)" fill="#FFFFFF">
                <path d="M170,131 L46.3636364,131 C19.0240625,131 0,110.4035 0,85 L131.363636,85 C150.970625,85 170,105.5965 170,131" id="Fill-85"></path>
                <path d="M131.363636,0 L46.3636364,0 C19.029375,0 0,19.0121538 0,46 L0,69 L46.3636364,69 L46.3636364,46 L170,46 C170,19.0121538 150.970625,0 131.363636,0" id="Fill-86"></path>
                <path d="M123.636364,147 L123.636364,170 L0,170 C0,196.987846 19.029375,216 46.3636364,216 L131.363636,216 C150.970625,216 170,196.987846 170,170 L170,147 L123.636364,147 Z" id="Fill-87"></path>
            </g>
            <path d="M470.344312,267.47375 L470.344312,241.27875 C488.180871,243.032187 503.400316,243.918594 516.017002,243.918594 C523.413815,243.918594 529.174335,243.584375 533.303345,242.930469 C537.432355,242.266875 540.518348,241.133437 542.551754,239.515625 C544.427272,238.047969 545.628177,236.289687 546.135333,234.231094 C546.642488,232.177344 546.896066,229.237187 546.896066,225.420312 C546.896066,221.162656 546.604212,218.048125 546.025289,216.067031 C545.441582,214.085937 544.288522,212.618281 542.551754,211.664062 C540.810201,210.709844 537.906019,210.012344 533.848776,209.571562 L501.883634,205.8225 C492.314665,204.505 484.917852,201.976562 479.697979,198.232344 C474.478107,194.488125 470.889743,189.644375 468.932889,183.701094 C466.976035,177.757812 466,170.380781 466,161.574844 C466,148.661406 468.310906,138.8625 472.956641,132.178125 C477.592806,125.498594 483.82699,121.134375 491.659191,119.080625 C499.491392,117.026875 509.562732,116 521.887565,116 C540.877184,116 557.120509,117.467656 570.603187,120.402969 L570.603187,145.939219 C556.541587,144.035625 542.403435,143.076562 528.1983,143.076562 C515.146226,143.076562 506.5198,144.180937 502.314238,146.384844 C499.993763,147.557031 498.544064,149.102187 497.965142,151.005781 C497.386219,152.914219 497.09915,155.776875 497.09915,159.59375 C497.09915,163.996719 497.386219,167.154844 497.965142,169.063281 C498.544064,170.966875 499.811953,172.323125 501.768807,173.132031 C503.730446,173.936094 507.026955,174.638437 511.667906,175.224531 L546.025289,179.404687 C552.694861,180.145781 558.201803,181.497187 562.555684,183.478281 C566.90478,185.459375 570.311333,188.728906 572.775343,193.282031 C576.258448,199.588594 578,209.34875 578,222.5625 C578,236.502812 575.82306,246.994375 571.473963,254.046875 C567.124867,261.089687 561.287795,265.681563 553.967534,267.803125 C546.642488,269.934375 537.035243,271 525.150583,271 C503.835704,271 485.573326,269.818125 470.344312,267.47375" id="Fill-88" fill="#00233A"></path>
            <polygon id="Fill-89" fill="#00233A" points="639.907696 271 639.907696 149.126499 596 149.126499 596 121 715 121 715 149.126499 671.087474 149.126499 671.087474 271"></polygon>
            <path d="M788.440358,150 L787.343073,150 L767,211 L809,211 L788.440358,150 Z M828.779259,271 L817.823628,238.730383 L759.081773,238.730383 L748.343134,271 L717,271 L768.07002,121 L809.92998,121 L861,271 L828.779259,271 Z" id="Fill-90" fill="#00233A"></path>
            <path d="M885.349097,267.47375 L885.349097,241.27875 C903.185655,243.032187 918.405101,243.918594 931.017002,243.918594 C938.413815,243.918594 944.179119,243.584375 948.308129,242.930469 C952.43714,242.266875 955.518348,241.133437 957.551754,239.515625 C959.432056,238.047969 960.628177,236.289687 961.140117,234.231094 C961.642488,232.177344 961.90085,229.237187 961.90085,225.420312 C961.90085,221.162656 961.604212,218.048125 961.025289,216.067031 C960.446367,214.085937 959.293306,212.618281 957.551754,211.664062 C955.814986,210.709844 952.906019,210.012344 948.848776,209.571562 L916.883634,205.8225 C907.314665,204.505 899.922637,201.976562 894.697979,198.232344 C889.478107,194.488125 885.889743,189.644375 883.937674,183.701094 C881.976035,177.757812 881,170.380781 881,161.574844 C881,148.661406 883.315691,138.8625 887.961425,132.178125 C892.597591,125.498594 898.831774,121.134375 906.659191,119.080625 C914.491392,117.026875 924.562732,116 936.887565,116 C955.881968,116 972.125294,117.467656 985.603187,120.402969 L985.603187,145.939219 C971.541587,144.035625 957.408219,143.076562 943.1983,143.076562 C930.146226,143.076562 921.524585,144.180937 917.319023,146.384844 C914.993763,147.557031 913.548849,149.102187 912.969926,151.005781 C912.386219,152.914219 912.09915,155.776875 912.09915,159.59375 C912.09915,163.996719 912.386219,167.154844 912.969926,169.063281 C913.548849,170.966875 914.816737,172.323125 916.773591,173.132031 C918.730446,173.936094 922.026955,174.638437 926.667906,175.224531 L961.025289,179.404687 C967.699645,180.145781 973.206587,181.497187 977.555684,183.478281 C981.909565,185.459375 985.316118,188.728906 987.780127,193.282031 C991.263232,199.588594 993,209.34875 993,222.5625 C993,236.502812 990.82306,246.994375 986.478747,254.046875 C982.129651,261.089687 976.287795,265.681563 968.972318,267.803125 C961.642488,269.934375 952.035243,271 940.155368,271 C918.840489,271 900.573326,269.818125 885.349097,267.47375" id="Fill-91" fill="#00233A"></path>
            <polygon id="Fill-92" fill="#00233A" points="1025 271 1056 271 1056 121 1025 121"></polygon>
            <path d="M1092.3491,267.47375 L1092.3491,241.27875 C1110.18566,243.032187 1125.4051,243.918594 1138.017,243.918594 C1145.41382,243.918594 1151.17912,243.584375 1155.30334,242.930469 C1159.43714,242.266875 1162.51835,241.133437 1164.55175,239.515625 C1166.43206,238.047969 1167.62818,236.289687 1168.14012,234.231094 C1168.64249,232.177344 1168.89607,229.237187 1168.89607,225.420312 C1168.89607,221.162656 1168.60421,218.048125 1168.02529,216.067031 C1167.44637,214.085937 1166.28852,212.618281 1164.55175,211.664062 C1162.8102,210.709844 1159.90602,210.012344 1155.84878,209.571562 L1123.88363,205.8225 C1114.31467,204.505 1106.91785,201.976562 1101.69798,198.232344 C1096.47811,194.488125 1092.88974,189.644375 1090.93289,183.701094 C1088.97603,177.757812 1088,170.380781 1088,161.574844 C1088,148.661406 1090.31569,138.8625 1094.96143,132.178125 C1099.59759,125.498594 1105.83177,121.134375 1113.65919,119.080625 C1121.49139,117.026875 1131.56273,116 1143.88756,116 C1162.88197,116 1179.12529,117.467656 1192.60319,120.402969 L1192.60319,145.939219 C1178.54159,144.035625 1164.40343,143.076562 1150.1983,143.076562 C1137.14623,143.076562 1128.52458,144.180937 1124.31902,146.384844 C1121.99376,147.557031 1120.54406,149.102187 1119.96514,151.005781 C1119.38622,152.914219 1119.09915,155.776875 1119.09915,159.59375 C1119.09915,163.996719 1119.38622,167.154844 1119.96514,169.063281 C1120.54406,170.966875 1121.81674,172.323125 1123.77359,173.132031 C1125.73045,173.936094 1129.02696,174.638437 1133.66791,175.224531 L1168.02529,179.404687 C1174.69965,180.145781 1180.20659,181.497187 1184.55568,183.478281 C1188.90956,185.459375 1192.31612,188.728906 1194.78013,193.282031 C1198.26323,199.588594 1200,209.34875 1200,222.5625 C1200,236.502812 1197.82306,246.994375 1193.47875,254.046875 C1189.12487,261.089687 1183.2878,265.681563 1175.97232,267.803125 C1168.64249,269.934375 1159.03524,271 1147.15058,271 C1125.84049,271 1107.57333,269.818125 1092.3491,267.47375" id="Fill-93" fill="#00233A"></path>
        </g>
    </g>
</svg>